<mxfile
  host="Electron" 
  agent="Mozilla/5.0 (Macintosh; Intel Mac OS X 10_15_7) AppleWebKit/537.36 (KHTML, like Gecko) draw.io/25.0.2 Chrome/128.0.6613.186 Electron/32.2.5 Safari/537.36" 
  version="25.0.2"
  >
  <diagram
    name="-"
    >
    <mxGraphModel
      grid="1" 
      gridSize="10" 
      guides="1" 
      tooltips="1" 
      connect="1" 
      arrows="1" 
      fold="1" 
      page="1" 
      pageScale="1" 
      pageWidth="1" 
      pageHeight="1" 
      math="0" 
      shadow="0"
      >
      <root>
        <mxCell
          id="page"
          />
        <mxCell
          id="root" 
          parent="page"
          />
        <mxCell
          style="verticalAlign=top;aspect=fixed;align=center;spacingLeft=5;spacingRight=5;spacingBottom=5;strokeColor=none;" 
          id="shape_" 
          parent="root" 
          value=" " 
          vertex="1"
          >
          <mxGeometry
            as="geometry" 
            width="120" 
            height="120" 
            x="0" 
            y="0"
            />
          </mxCell>
        <mxCell
          style="rounded=1;whiteSpace=wrap;verticalAlign=top;align=center;sketch=0;html=1;labelPosition=center;verticalLabelPosition=bottom;spacingTop=-6;fontSize=11;fontStyle=1;fontColor=#999999;shape=image;aspect=fixed;imageAspect=0;image=data:image/svg+xml,PHN2ZyB4bWxucz0iaHR0cDovL3d3dy53My5vcmcvMjAwMC9zdmciIGlkPSJzdmc1IiB2ZXJzaW9uPSIxLjEiIHZpZXdCb3g9IjAgMCAxNTUuMzAyNzMgMTU1LjI4NjI0IiBoZWlnaHQ9IjE1NS4yODYyNG1tIiB3aWR0aD0iMTU1LjMwMjczbW0iPiYjeGE7ICA8ZGVmcyBpZD0iZGVmczExIi8+JiN4YTsgICYjeGE7ICA8cGF0aCBpZD0icGF0aDIiIGQ9Im0gODUuNjkzNDkzLDM4Ljc2Nzg3MiB2IDIzLjExMTY5IGggMTUuNDk5OTk3IHYgLTIzLjExMTY5IHogbSAtMzEuMTYyMjQzLDAgdiAyMy4xMTE2OSBoIDE1LjUgViAzOC43Njc4NzIgWiBNIDc3Ljg4ODY3MywxLjI1MjczOTVlLTYgQyAzNi4wMTM5MTksMS4yNTI3Mzk1ZS02IDAsMzMuOTc2MDAyIDAsNzcuMTc1NzgyIGMgMCwxNi40MzUxNiA1LjU2OTc5MywzNS4yMDgxNjggMTguMjE0ODQ0LDUwLjMzMzk3OCA3LjE3NDIyNiw4LjU4MTcgMTYuNzM1MTU5LDE1Ljg1MDc5IDI4LjU4MTk1OSwyMC41MzQzMiBsIC0wLjAxODY3LC0xNi4zMTg3IEMgMzkuODgxMjQ1LDEyOC4xMjYxOSAzNC4yODI2MTEsMTIzLjM0MzIxIDI5LjcyMjY1NywxMTcuODg4NjcgMTkuNjY0NzU3LDEwNS44NTc1NyAxNS4wMDAwMDEsOTAuMTI4MjEyIDE1LDc3LjE3NTc4MiAxNSw0Mi4zMjA0MjIgNDQuMTE2NjM4LDE1LjAwMDAwMSA3Ny44ODg2NzMsMTUuMDAwMDAxIFoiIHN0eWxlPSJjb2xvcjojMDAwMDAwO29wYWNpdHk6MTtmaWxsOiNhZWNiZmE7ZmlsbC1vcGFjaXR5OjE7LWlua3NjYXBlLXN0cm9rZTpub25lIi8+JiN4YTsgIDxwYXRoIGlkPSJwYXRoNCIgZD0ibSA3OC4wMzIxNjMsMTI0LjQ1MTk0IGMgLTIxLjQ0NjI4NSwwIC0zOS4yODY3MjYsLTE2LjM3NzY5IC0zOS4yODY3MjYsLTQwLjY4ODU3OCBsIDAuMjA3NzYyLC0yMS44ODM4IGggMzkuMDc4OTY0IHoiIHN0eWxlPSJvcGFjaXR5OjE7ZmlsbDojNjY5ZGY2O2ZpbGwtb3BhY2l0eToxO3N0cm9rZTpub25lO3N0cm9rZS13aWR0aDowLjI2NDU4M3B4O3N0cm9rZS1saW5lY2FwOmJ1dHQ7c3Ryb2tlLWxpbmVqb2luOm1pdGVyO3N0cm9rZS1vcGFjaXR5OjEiLz4mI3hhOyAgPHBhdGggaWQ9InBhdGg2IiBkPSJtIDc4LjAzMjE2MSw2MS44Nzk1NjcgdiA2Mi41NzIzNzMgYyAtMi43Mzc3MzksMCAtNS40MTYxNCwtMC4yNjg3NSAtOC4wMDY3NDcsLTAuNzg0OTYgdiAzMS42MTkyNiBIIDg1LjYwOTQ3NSBWIDEyMy40MDM0MyBDIDEwNi42NDQyLDExOC44ODQzNCAxMTYuOTIwMjMsMTAwLjY5NzE2IDExNi45MjAyMyw4My45NDMzMDUgViA2MS44Nzk1NjcgWiBNIDc3Ljg4ODY3MiwwIHYgMTUuMDAwMDAyIGMgMzAuOTM1OTU4LDAgNjIuNDE0MDU4LDIzLjk3MTE5OSA2Mi40MTQwNTgsNjQuMDgyMDI5IDAsMTAuMzkyNTcxIC00LjM1NTU1LDI1Ljg4NzQwOSAtMTQuMjc5MywzOC4wNzAzMDkgLTQuNTQ3NTUsNS41ODI4IC0xMC4xNTk2MiwxMC41NzAzNyAtMTcuMTQ0MzcsMTQuMzM1ODkgbCAwLjEzNTQ0LDE2LjMyODcyIGMgMTIuMDExNjQsLTQuOTE0NDUgMjEuNTY3NDQsLTEyLjUwNzYyIDI4LjYzOTc5LC0yMS4xOSBDIDE1MC4wMzMsMTExLjQzMDIyIDE1NS4zMDI3Myw5My4zNzM2NjEgMTU1LjMwMjczLDc5LjA4MjAzMSAxNTUuMzAyNzMsMzEuMDIzOTA0IDExNi43MDgzMywwIDc3Ljg4ODY3MiwwIFoiIHN0eWxlPSJvcGFjaXR5OjE7ZmlsbDojNDI4NWY0O2ZpbGwtb3BhY2l0eToxO3N0cm9rZTpub25lO3N0cm9rZS13aWR0aDowLjI2NDU4M3B4O3N0cm9rZS1saW5lY2FwOmJ1dHQ7c3Ryb2tlLWxpbmVqb2luOm1pdGVyO3N0cm9rZS1vcGFjaXR5OjEiLz4mI3hhOzwvc3ZnPg;strokeColor=none;" 
          id="integration_connectors_" 
          parent="shape_" 
          value=" " 
          vertex="1"
          >
          <mxGeometry
            as="geometry" 
            width="60" 
            height="60" 
            x="30" 
            y="30"
            />
          </mxCell>
        </root>
      </mxGraphModel>
    </diagram>
  </mxfile>